<svg width="38" height="24" viewBox="0 0 38 24" fill="none" xmlns="http://www.w3.org/2000/svg">
<path d="M34.3443 5.66727C34.1801 5.72136 34.2308 6.70629 34.2375 6.95289C34.2409 7.06936 34.2086 7.26138 34.3443 7.30427C34.3443 8.45928 34.3356 9.61867 34.3544 10.7732C35.2125 11.0978 37.4918 11.6641 37.7434 12.6217C38.1606 14.2095 36.4444 14.2509 35.4916 14.7548C33.9932 15.5472 32.8902 17.4421 32.7241 19.1244C32.6502 19.8705 32.9168 20.7048 32.2113 21.2672C31.3174 21.9802 29.9489 21.4914 29.791 20.3418C29.4839 18.1063 29.3685 16.8631 27.8526 15.0331C23.0159 9.19273 12.8668 9.76488 9.24889 16.614C8.42072 18.1823 8.55979 18.8344 8.28212 20.447C8.12711 21.3476 7.0855 21.835 6.26022 21.4758C5.1679 21.0002 5.4982 19.814 5.33595 18.8281C5.0747 17.2413 3.99349 15.4269 2.54237 14.69C1.73979 14.2826 0.506946 14.3269 0.341311 13.2192C0.106139 11.6441 2.70656 11.3195 3.72596 10.7839V5.66776C2.70076 5.78179 1.50703 6.97872 0.628637 6.082C-0.163803 5.27349 0.500668 4.48935 1.3414 4.13066C10.3769 0.275751 22.6436 0.122237 32.0341 2.62671C33.0356 2.89378 36.7225 3.90941 37.3378 4.43672C38.2678 5.2345 37.739 6.57568 36.4463 6.35881C36.0291 6.28863 34.6359 5.57126 34.3443 5.66727ZM20.4541 3.10918H17.6151V7.91832H20.4541V3.10918ZM16.1959 3.21153C15.2779 3.17108 14.3676 3.31631 13.4583 3.41621V8.32769L16.1959 8.02066V3.21153ZM24.6109 3.41621C23.7016 3.31631 22.7913 3.17108 21.8734 3.21153V8.02066L24.6109 8.32769V3.41621ZM12.0391 3.6209C11.1423 3.8017 10.1186 3.81048 9.30153 4.18378V9.04409L12.0391 8.53238V3.6209ZM28.7677 4.13261C27.9405 3.83289 26.8946 3.80999 26.0302 3.6209V8.53238C26.9221 8.5431 27.9154 8.98025 28.7677 9.04409C28.8344 9.04897 28.9034 9.04214 28.9701 9.04458L28.9609 4.13895C28.9 4.10386 28.8107 4.14821 28.7682 4.13261H28.7677ZM7.88228 4.43915L5.14472 5.15555V10.2717L7.88228 9.45298V4.43915ZM33.0259 5.2579C32.1123 4.93674 31.1605 4.58633 30.187 4.5415V9.45298C30.7288 9.42179 32.6667 10.2971 33.0259 10.1694V5.2579ZM19.0262 14.1218C18.8171 14.3542 18.2473 15.4084 18.0401 15.7656C17.0207 17.5239 15.4382 20.1663 16.955 22.0397C18.4993 23.9472 21.6758 23.0704 21.8772 20.5586C22.0675 18.1823 20.1967 16.077 19.2358 14.0584C19.172 14.0048 19.0928 14.0482 19.0267 14.1218H19.0262ZM12.3679 18.0751C12.6219 19.6088 15.077 19.8802 15.8115 18.6322C16.7305 17.0697 14.9461 14.9936 14.2189 13.6505C13.4897 14.7675 12.14 16.6993 12.3679 18.0751ZM23.8508 13.8532C23.7562 13.9434 23.2887 14.8079 23.1738 15.0117C22.546 16.1287 21.487 17.9976 22.7913 19.0142C23.5712 19.622 25.1064 19.5196 25.6453 18.6317C26.5642 17.1185 24.7587 15.1306 24.2 13.7538C24.0392 13.7241 23.9691 13.7402 23.8508 13.8532ZM34.3443 5.66727C34.1801 5.72136 34.2308 6.70629 34.2375 6.95289C34.2409 7.06936 34.2086 7.26138 34.3443 7.30427V5.66727ZM28.7677 9.0436C28.8344 9.04848 28.9034 9.04166 28.9701 9.04409L28.9609 4.13846C28.9 4.10337 28.8107 4.14772 28.7682 4.13213V9.0436H28.7677Z" fill="#58004B"/>
</svg>
